HIERARCHY
ROOT hip
{
  OFFSET 0 0 0
  CHANNELS 6 Xposition Yposition Zposition Zrotation Yrotation Xrotation
  JOINT abdomen
  {
    OFFSET 0 20.6881 -0.73152
    CHANNELS 3 Zrotation Xrotation Yrotation
    JOINT chest
    {
      OFFSET 0 11.7043 -0.48768
      CHANNELS 3 Zrotation Xrotation Yrotation
      JOINT neck
      {
        OFFSET 0 22.1894 -2.19456
        CHANNELS 3 Zrotation Xrotation Yrotation
        JOINT head
        {
          OFFSET -0.24384 7.07133 1.2192
          CHANNELS 3 Zrotation Xrotation Yrotation
          JOINT leftEye
          {
            OFFSET 4.14528 8.04674 8.04672
            CHANNELS 3 Zrotation Xrotation Yrotation
            End Site
            {
              OFFSET 1 0 0
            }
          }
          JOINT rightEye
          {
            OFFSET -3.6576 8.04674 8.04672
            CHANNELS 3 Zrotation Xrotation Yrotation
            End Site
            {
              OFFSET 1 0 0
            }
          }
        }
      }
      JOINT rCollar
      {
        OFFSET -2.68224 19.2634 -4.8768
        CHANNELS 3 Zrotation Xrotation Yrotation
        JOINT rShldr
        {
          OFFSET -8.77824 -1.95073 1.46304
          CHANNELS 3 Zrotation Xrotation Yrotation
          JOINT rForeArm
          {
            OFFSET -28.1742 -1.7115 0.48768
            CHANNELS 3 Zrotation Xrotation Yrotation
            JOINT rHand
            {
              OFFSET -22.5879 0.773209 7.07136
              CHANNELS 3 Zrotation Xrotation Yrotation
              JOINT rThumb1
              {
                OFFSET -1.2192 -0.487915 3.41376
                CHANNELS 3 Zrotation Xrotation Yrotation
                JOINT rThumb2
                {
                  OFFSET -3.37035 -0.52449 3.41376
                  CHANNELS 3 Zrotation Xrotation Yrotation
                  End Site
                  {
                    OFFSET -1.78271 -1.18214 1.43049
                  }
                }
              }
              JOINT rIndex1
              {
                OFFSET -7.75947 0.938293 5.60832
                CHANNELS 3 Zrotation Xrotation Yrotation
                JOINT rIndex2
                {
                  OFFSET -2.54057 -0.884171 1.56538
                  CHANNELS 3 Zrotation Xrotation Yrotation
                  End Site
                  {
                    OFFSET -1.62519 -0.234802 1.16502
                  }
                }
              }
              JOINT rMid1
              {
                OFFSET -8.24714 1.18213 3.41376
                CHANNELS 3 Zrotation Xrotation Yrotation
                JOINT rMid2
                {
                  OFFSET -3.10165 -0.590103 1.0647
                  CHANNELS 3 Zrotation Xrotation Yrotation
                  End Site
                  {
                    OFFSET -2.48547 -0.328903 0.83742
                  }
                }
              }
              JOINT rRing1
              {
                OFFSET -8.82822 0.546677 1.51678
                CHANNELS 3 Zrotation Xrotation Yrotation
                JOINT rRing2
                {
                  OFFSET -2.60934 -0.819778 -0.0198488
                  CHANNELS 3 Zrotation Xrotation Yrotation
                  End Site
                  {
                    OFFSET -2.33842 -0.294052 0.168128
                  }
                }
              }
              JOINT rPinky1
              {
                OFFSET -8.27202 -0.0477905 -0.4584
                CHANNELS 3 Zrotation Xrotation Yrotation
                JOINT rPinky2
                {
                  OFFSET -1.82734 -0.647385 -0.700984
                  CHANNELS 3 Zrotation Xrotation Yrotation
                  End Site
                  {
                    OFFSET -1.69225 -0.51767 -0.607171
                  }
                }
              }
            }
          }
        }
      }
      JOINT lCollar
      {
        OFFSET 2.68224 19.2634 -4.8768
        CHANNELS 3 Zrotation Xrotation Yrotation
        JOINT lShldr
        {
          OFFSET 8.77824 -1.95073 1.46304
          CHANNELS 3 Zrotation Xrotation Yrotation
          JOINT lForeArm
          {
            OFFSET 28.1742 -1.7115 0.48768
            CHANNELS 3 Zrotation Xrotation Yrotation
            JOINT lHand
            {
              OFFSET 22.5879 0.773209 7.07136
              CHANNELS 3 Zrotation Xrotation Yrotation
              JOINT lThumb1
              {
                OFFSET 1.2192 -0.487915 3.41376
                CHANNELS 3 Zrotation Xrotation Yrotation
                JOINT lThumb2
                {
                  OFFSET 3.37035 -0.52449 3.41376
                  CHANNELS 3 Zrotation Xrotation Yrotation
                  End Site
                  {
                    OFFSET 1.78271 -1.18214 1.43049
                  }
                }
              }
              JOINT lIndex1
              {
                OFFSET 7.75947 0.938293 5.60832
                CHANNELS 3 Zrotation Xrotation Yrotation
                JOINT lIndex2
                {
                  OFFSET 2.54057 -0.884171 1.56538
                  CHANNELS 3 Zrotation Xrotation Yrotation
                  End Site
                  {
                    OFFSET 1.62519 -0.234802 1.16502
                  }
                }
              }
              JOINT lMid1
              {
                OFFSET 8.24714 1.18213 3.41376
                CHANNELS 3 Zrotation Xrotation Yrotation
                JOINT lMid2
                {
                  OFFSET 3.10165 -0.590103 1.0647
                  CHANNELS 3 Zrotation Xrotation Yrotation
                  End Site
                  {
                    OFFSET 2.48547 -0.328903 0.83742
                  }
                }
              }
              JOINT lRing1
              {
                OFFSET 8.82822 0.546677 1.51678
                CHANNELS 3 Zrotation Xrotation Yrotation
                JOINT lRing2
                {
                  OFFSET 2.60934 -0.819778 -0.0198488
                  CHANNELS 3 Zrotation Xrotation Yrotation
                  End Site
                  {
                    OFFSET 2.33842 -0.294052 0.168128
                  }
                }
              }
              JOINT lPinky1
              {
                OFFSET 8.27202 -0.0477905 -0.4584
                CHANNELS 3 Zrotation Xrotation Yrotation
                JOINT lPinky2
                {
                  OFFSET 1.82734 -0.647385 -0.700984
                  CHANNELS 3 Zrotation Xrotation Yrotation
                  End Site
                  {
                    OFFSET 1.69225 -0.51767 -0.607171
                  }
                }
              }
            }
          }
        }
      }
    }
  }
  JOINT rButtock
  {
    OFFSET -8.77824 4.35084 1.2192
    CHANNELS 3 Zrotation Xrotation Yrotation
    JOINT rThigh
    {
      OFFSET 0 -1.70687 -2.19456
      CHANNELS 3 Zrotation Xrotation Yrotation
      JOINT rShin
      {
        OFFSET 0 -36.8199 0.73152
        CHANNELS 3 Zrotation Xrotation Yrotation
        JOINT rFoot
        {
          OFFSET 0.73152 -45.1104 -5.12064
          CHANNELS 3 Zrotation Xrotation Yrotation
          End Site
          {
            OFFSET -1.1221 -3.69964 12.103
          }
        }
      }
    }
  }
  JOINT lButtock
  {
    OFFSET 8.77824 4.35084 1.2192
    CHANNELS 3 Zrotation Xrotation Yrotation
    JOINT lThigh
    {
      OFFSET 0 -1.70687 -2.19456
      CHANNELS 3 Zrotation Xrotation Yrotation
      JOINT lShin
      {
        OFFSET 0 -36.8199 0.73152
        CHANNELS 3 Zrotation Xrotation Yrotation
        JOINT lFoot
        {
          OFFSET -0.73152 -45.1104 -5.12064
          CHANNELS 3 Zrotation Xrotation Yrotation
          End Site
          {
            OFFSET 1.1221 -3.69964 12.103
          }
        }
      }
    }
  }
}
MOTION
Frames:	5
Frame Time:	0.00833333
24.3741 83.8008 108.015 0.0 0.0 0.0 -2.04816 -0.00112506 -0.0554693 -0.564326 0.00679419 -0.0976948 1.31249e-14 0.0 4.72114e-16 3.87754e-14 3.18055e-15 1.36509e-15 -0.0 0.0 0.0 -0.0 0.0 0.0 6.35966e-15 -5.90142e-17 2.98177e-16 1.38383e-13 -9.38015e-16 5.96354e-15 2.31574e-12 -7.37292e-13 5.725e-14 2.66173e-11 5.03994e-13 9.28722e-13 6.27563e-11 -5.12042e-13 2.1596e-12 1.08364e-10 -8.87375e-13 3.71886e-12 6.27595e-11 -5.12467e-13 2.14687e-12 7.73091 5.47488 0.417314 6.27561e-11 -5.12566e-13 2.15642e-12 2.90554 0.965183 0.102902 6.27622e-11 -5.12169e-13 2.15085e-12 10.2786 0.731801 0.0259123 6.27519e-11 -5.10081e-13 2.15324e-12 2.22167 -0.733487 -0.20892 6.36298e-15 -5.86259e-17 9.93923e-17 1.32839e-13 -1.01877e-15 4.37326e-15 2.33632e-12 6.58574e-13 6.99722e-14 2.65971e-11 -8.92568e-13 9.25541e-13 6.27571e-11 -5.10857e-13 2.14369e-12 1.08379e-10 -8.81014e-13 3.71171e-12 6.27519e-11 -5.11672e-13 2.15005e-12 -7.73091 5.47488 -0.417314 6.27582e-11 -5.11175e-13 2.14369e-12 -2.90554 0.965183 -0.102902 6.27475e-11 -5.11175e-13 2.14926e-12 -10.2786 0.731801 -0.0259123 6.27615e-11 -5.09286e-13 2.15005e-12 -2.22167 -0.733487 0.20892 -2.03217e-16 0.0 -3.88251e-19 -1.04873 -1.92716 0.000313852 -0.00908266 -2.07858 -0.0749072 -0.506028 3.9982 0.139424 2.03217e-16 0.0 3.88251e-19 -2.06452 -7.46955 0.20465 -0.00450263 7.96083 -0.11754 0.53922 -0.498715 -0.0508041
19.8126 82.236 102.219 -22.74 -62.6469 26.7559 3.25636 4.74151 2.92068 -1.15904 -0.981467 0.894916 -0.125137 1.98876 1.38168 -3.14821 -2.18205 2.46483 -0.0 0.0 0.0 -0.0 0.0 0.0 2.06949e-14 1.02933e-13 1.61657e-13 20.1172 4.18295 1.82605 -3.19771 -1.29582 5.1522 0.00906192 -2.11648 -0.296724 -7.71323e-10 1.54814e-10 7.37006e-10 -1.33825e-09 2.68303e-10 1.27228e-09 -7.71318e-10 1.54816e-10 7.36993e-10 7.73091 5.47488 0.417314 -7.71323e-10 1.54815e-10 7.37005e-10 2.90554 0.965183 0.102902 -7.71316e-10 1.54815e-10 7.36998e-10 10.2786 0.731801 0.0259123 -7.71327e-10 1.54817e-10 7.37e-10 2.22167 -0.733487 -0.20892 2.06921e-14 1.02935e-13 1.61457e-13 -22.7172 6.02928 0.269923 4.66306 -2.21495 -7.17617 -0.000398556 -0.454914 0.0639273 -6.80097e-10 1.24871e-09 4.82068e-10 -1.17664e-09 2.16356e-09 8.34942e-10 -6.80104e-10 1.2487e-09 4.82079e-10 -7.73091 5.47488 -0.417314 -6.80096e-10 1.24871e-09 4.82068e-10 -2.90554 0.965183 -0.102902 -6.80107e-10 1.24871e-09 4.82072e-10 -10.2786 0.731801 -0.0259123 -6.80094e-10 1.24871e-09 4.8207e-10 -2.22167 -0.733487 0.20892 -2.03217e-16 0.0 -3.88251e-19 1.80689 -3.2751 -2.3549 -0.0180016 4.83933 0.0264519 -1.20649 -1.64506 -6.29362 2.03217e-16 0.0 3.88251e-19 2.28731 -18.2788 1.71369 0.0646294 15.3211 -0.112108 1.29458 -2.5946 6.50917
19.665 82.2769 102.705 -20.2882 -63.0346 24.8654 8.33559 9.7233 6.12018 -1.74841 -2.02731 1.94182 -0.36188 4.08404 2.84501 -6.2769 -4.47087 5.07677 -0.0 0.0 0.0 -0.0 0.0 0.0 3.10666e-14 2.00497e-13 3.40506e-13 41.0844 8.60854 3.77916 -6.32723 -2.63156 10.6094 -0.0053228 -4.36989 -0.614028 -1.6283e-09 3.20546e-10 1.58344e-09 -2.82507e-09 5.55512e-10 2.73372e-09 -1.6283e-09 3.20551e-10 1.58343e-09 7.73091 5.47488 0.417314 -1.6283e-09 3.20549e-10 1.58344e-09 2.90554 0.965183 0.102902 -1.6283e-09 3.20549e-10 1.58344e-09 10.2786 0.731801 0.0259123 -1.62831e-09 3.20551e-10 1.58344e-09 2.22167 -0.733487 -0.20892 3.10587e-14 2.005e-13 3.40304e-13 -46.7947 12.4327 0.555844 9.00507 -4.44869 -14.8132 0.000305019 -0.947825 0.133208 -1.43704e-09 2.64775e-09 9.93246e-10 -2.48616e-09 4.58733e-09 1.72026e-09 -1.43704e-09 2.64775e-09 9.93262e-10 -7.73091 5.47488 -0.417314 -1.43703e-09 2.64775e-09 9.93246e-10 -2.90554 0.965183 -0.102902 -1.43705e-09 2.64775e-09 9.93248e-10 -10.2786 0.731801 -0.0259123 -1.43703e-09 2.64775e-09 9.93243e-10 -2.22167 -0.733487 0.20892 -2.03217e-16 0.0 -3.88251e-19 4.7088 -4.69632 -4.8561 -0.0543768 12.1643 0.13669 -3.32306 -7.43497 -13.2023 2.03217e-16 0.0 3.88251e-19 7.59448 -29.6663 3.6254 0.137094 23.104 -0.106397 2.57869 -4.6215 13.4065
18.9671 82.1458 102.457 -25.1152 -61.6662 28.6683 12.3553 14.0724 9.11885 -2.24566 -2.95461 2.88358 -0.66421 5.95236 4.16502 -8.88006 -6.49756 7.43717 -0.0 0.0 0.0 -0.0 0.0 0.0 4.93654e-14 3.08918e-13 4.84375e-13 59.5366 12.4973 5.59657 -8.90215 -3.76191 15.4869 -0.038922 -6.34875 -0.895054 -2.43948e-09 4.65467e-10 2.2067e-09 -4.23149e-09 8.06685e-10 3.80939e-09 -2.43947e-09 4.65474e-10 2.20668e-09 7.73091 5.47488 0.417314 -2.43948e-09 4.6547e-10 2.2067e-09 2.90554 0.965183 0.102902 -2.43947e-09 4.65471e-10 2.20669e-09 10.2786 0.731801 0.0259123 -2.43949e-09 4.65472e-10 2.20669e-09 2.22167 -0.733487 -0.20892 4.93504e-14 3.08921e-13 4.84172e-13 -68.3297 18.0862 0.84715 12.36 -6.22879 -21.6465 0.00185046 -1.36474 0.19183 -2.16581e-09 3.74714e-09 1.44192e-09 -3.74666e-09 6.49244e-09 2.4974e-09 -2.16582e-09 3.74714e-09 1.44194e-09 -7.73091 5.47488 -0.417314 -2.1658e-09 3.74715e-09 1.44192e-09 -2.90554 0.965183 -0.102902 -2.16582e-09 3.74715e-09 1.44192e-09 -10.2786 0.731801 -0.0259123 -2.16581e-09 3.74715e-09 1.44191e-09 -2.22167 -0.733487 0.20892 -2.03217e-16 0.0 -3.88251e-19 7.18508 -5.93385 -7.09197 -0.111908 18.675 0.241504 -6.40069 -12.2327 -19.6142 2.03217e-16 0.0 3.88251e-19 13.1672 -39.7742 5.82758 0.199534 30.0415 -0.105764 4.22075 -6.43858 19.7386
18.999 82.1335 103.073 -22.2235 -62.1553 26.7911 14.7978 16.9843 11.381 -2.58499 -3.58877 3.55919 -0.92805 7.26634 5.10793 -10.5643 -7.91446 9.1287 -0.0 0.0 0.0 -0.0 0.0 0.0 8.74814e-14 4.4448e-13 5.40794e-13 72.2814 15.0921 6.96104 -10.5758 -4.49872 18.8858 -0.0721649 -7.64194 -1.08048 -3.13615e-09 5.58359e-10 2.272e-09 -5.43687e-09 9.67773e-10 3.92063e-09 -3.13614e-09 5.58367e-10 2.27199e-09 7.73091 5.47488 0.417314 -3.13615e-09 5.58362e-10 2.27201e-09 2.90554 0.965183 0.102902 -3.13614e-09 5.58363e-10 2.272e-09 10.2786 0.731801 0.0259123 -3.13615e-09 5.58364e-10 2.272e-09 2.22167 -0.733487 -0.20892 8.74548e-14 4.44485e-13 5.40595e-13 -83.3886 21.8664 1.11851 14.3966 -7.27904 -26.3557 0.00310808 -1.59165 0.22375 -2.82416e-09 4.09741e-09 1.73432e-09 -4.8846e-09 7.10092e-09 3.00411e-09 -2.82417e-09 4.0974e-09 1.73434e-09 -7.73091 5.47488 -0.417314 -2.82415e-09 4.09742e-09 1.73432e-09 -2.90554 0.965183 -0.102902 -2.82417e-09 4.09742e-09 1.73432e-09 -10.2786 0.731801 -0.0259123 -2.82416e-09 4.09742e-09 1.73431e-09 -2.22167 -0.733487 0.20892 -2.03217e-16 0.0 -3.88251e-19 8.83597 -6.74567 -8.64135 -0.16717 23.15 0.319438 -9.1978 -15.2559 -24.2795 2.03217e-16 0.0 3.88251e-19 17.7061 -46.7995 7.77072 0.241369 34.8654 -0.115944 5.8957 -8.00607 24.5794
